<svg width="53" height="30" viewBox="0 0 53 30" fill="none" xmlns="http://www.w3.org/2000/svg">
<rect width="53" height="30" fill="#505050"/>
<rect x="32" y="23.8079" width="4" height="4" rx="2" fill="#707070"/>
<path d="M32 18.0518V21.0096C32 21.4506 32.3574 21.808 32.7984 21.808H35.3232C35.697 21.808 35.9999 21.5051 35.9999 21.1313C35.9999 18.98 36.7321 16.8928 38.076 15.2129L38.6976 14.4359C39.5611 13.3564 40.3072 12.1528 40.6769 10.8208C44.1635 -1.74305 28.1098 -1.70023 27.0543 7.80943C26.9934 8.35835 27.4477 8.80798 28 8.80798H30.5401C30.8189 8.80798 31.0736 8.63013 31.1905 8.37706C33.5914 3.18014 36.5565 5.31008 36.9553 8.0236C37.3898 10.9806 34.1776 13.1785 32.6399 15.7414C32.2212 16.4393 32 17.2379 32 18.0518Z" fill="#707070"/>
</svg>
