<svg width="20" height="30" viewBox="0 0 20 30" fill="none" xmlns="http://www.w3.org/2000/svg">
<rect width="20" height="30" fill="#202020"/>
<rect x="8" y="24" width="4" height="4" rx="2" fill="#606060"/>
<path d="M7.99997 18.2439V21.2018C7.99997 21.6427 8.35743 22.0001 8.79837 22.0001H11.3232C11.697 22.0001 11.9999 21.6972 11.9999 21.3234C11.9999 19.1721 12.7321 17.0849 14.076 15.405L14.6976 14.628C15.5611 13.5485 16.3072 12.3449 16.6769 11.0129C20.1635 -1.55094 4.10978 -1.50812 3.05429 8.00154C2.99336 8.55046 3.44772 9.00008 4.00001 9.00008H6.5401C6.81888 9.00008 7.07362 8.82224 7.19053 8.56917C9.59138 3.37225 12.5565 5.50219 12.9553 8.2157C13.3898 11.1727 10.1776 13.3707 8.63992 15.9335C8.22117 16.6314 7.99997 17.43 7.99997 18.2439Z" fill="#606060"/>
</svg>
